<?xml version="1.0" standalone="no"?>
<!DOCTYPE svg PUBLIC "-//W3C//DTD SVG 20010904//EN"
 "http://www.w3.org/TR/2001/REC-SVG-20010904/DTD/svg10.dtd">
<svg version="1.0" xmlns="http://www.w3.org/2000/svg"
 width="300.000000pt" height="343.000000pt" viewBox="0 0 300.000000 343.000000"
 preserveAspectRatio="xMidYMid meet">

<g transform="translate(0.000000,343.000000) scale(0.100000,-0.100000)"
fill="#000000" stroke="none">
<path d="M1029 3311 c-81 -49 -144 -123 -157 -188 -6 -26 -8 -50 -6 -53 7 -6
24 22 18 31 -2 4 12 17 31 29 20 12 48 38 63 58 43 58 55 73 91 114 19 21 32
41 29 43 -2 3 -33 -12 -69 -34z"/>
<path d="M1470 3318 c19 -19 56 -44 81 -56 29 -14 46 -29 45 -39 0 -8 14 -24
32 -35 l34 -18 -23 40 c-24 42 -73 80 -154 118 l-49 23 34 -33z"/>
<path d="M1345 2970 c-3 -6 1 -7 9 -4 18 7 21 14 7 14 -6 0 -13 -4 -16 -10z"/>
<path d="M877 2963 c-10 -16 1 -106 14 -113 8 -6 8 -13 0 -26 -9 -16 -10 -16
-11 -3 0 9 -6 22 -14 28 -12 10 -14 7 -13 -23 1 -20 5 -36 8 -36 3 0 15 -17
26 -38 23 -39 17 -72 -12 -72 -20 0 -27 -34 -14 -64 l13 -27 15 33 16 33 3
-53 c2 -30 -2 -59 -8 -66 -7 -10 -6 -16 3 -25 8 -6 19 -36 26 -68 7 -31 22
-77 32 -101 18 -41 18 -46 3 -63 -10 -11 -13 -25 -9 -38 7 -22 29 -28 40 -11
4 6 10 8 15 5 5 -3 -4 -25 -21 -48 -37 -51 -53 -87 -89 -197 l-27 -85 -13 45
c-7 25 -16 73 -20 108 -5 35 -10 66 -13 68 -11 11 -78 -10 -133 -42 -32 -19
-88 -48 -124 -65 -143 -66 -135 -60 -134 -104 0 -22 21 -96 46 -165 52 -143
98 -315 102 -386 3 -48 -9 -186 -19 -231 -7 -29 -25 -30 -25 -2 0 18 -2 20
-16 8 -8 -7 -13 -21 -11 -30 3 -10 -3 -25 -13 -34 -21 -19 -81 -164 -105 -252
-15 -52 -22 -63 -47 -74 l-30 -12 28 -21 c16 -12 45 -36 65 -53 34 -31 42 -33
106 -33 78 0 131 18 246 83 79 44 188 73 304 80 74 5 83 3 88 -14 7 -23 -2
-42 -18 -36 -7 2 -32 -2 -57 -9 -25 -8 -55 -14 -67 -14 -13 0 -23 -4 -23 -8 0
-5 62 -14 138 -21 245 -21 271 -26 412 -87 60 -25 74 -27 175 -25 255 6 233 8
330 -33 177 -76 215 -95 215 -111 0 -8 7 -15 15 -15 19 0 20 -27 1 -45 -10
-11 -16 -11 -25 -2 -9 9 -14 9 -20 -1 -15 -25 -112 -39 -243 -35 l-128 3 -14
-35 c-26 -62 -105 -73 -129 -17 -26 59 -39 71 -65 61 -14 -6 -29 -6 -36 -1
-20 17 -86 12 -119 -8 -35 -22 -52 -26 -42 -10 4 7 -11 9 -47 6 -29 -3 -60 -1
-68 4 -17 10 -15 13 24 25 29 10 48 35 26 35 -6 0 -8 -5 -4 -11 4 -7 -1 -9
-15 -5 -11 3 -31 9 -43 12 -13 3 -31 16 -40 28 l-17 21 6 -23 c11 -45 -41 -64
-84 -30 -6 5 -49 11 -95 13 -143 8 -162 11 -206 33 -34 18 -46 20 -63 12 -11
-7 -26 -9 -33 -7 -7 3 -19 1 -27 -4 -9 -6 11 -9 55 -9 56 0 76 -5 103 -22 33
-23 46 -52 18 -42 -8 4 -22 1 -30 -6 -16 -13 -161 -4 -180 11 -16 12 -57 7
-45 -5 6 -6 10 -13 10 -17 0 -14 -53 -16 -79 -4 -35 18 -113 35 -156 35 -19 0
-35 5 -35 11 0 6 -8 8 -17 5 -10 -3 -48 -6 -85 -7 -55 -2 -76 3 -117 25 -28
14 -51 23 -51 20 0 -4 -8 3 -19 14 -10 12 -23 22 -29 22 -7 0 -14 11 -18 25
-4 16 -13 25 -25 25 -15 0 -19 -7 -19 -35 0 -71 57 -158 110 -170 49 -11 171
-95 165 -114 -4 -14 25 -16 304 -16 170 0 307 3 305 6 -11 18 265 17 291 -1 6
-3 181 -7 390 -7 257 -1 369 2 345 9 -37 9 -66 41 -54 60 7 11 218 5 262 -8
31 -9 28 -22 -9 -31 -16 -5 -29 -13 -27 -18 2 -6 7 -9 12 -7 5 2 17 -5 27 -14
37 -34 310 -1 419 49 51 24 147 118 183 180 58 98 76 259 44 382 -9 33 -23 96
-32 140 -9 44 -31 136 -50 205 -18 69 -41 157 -51 195 -23 91 -71 212 -123
305 -23 41 -62 117 -87 169 -37 78 -57 106 -117 163 -71 68 -104 89 -342 213
-60 32 -125 66 -142 77 -18 11 -37 16 -43 13 -19 -12 -60 23 -60 51 0 40 -26
90 -58 114 -21 16 -32 34 -36 61 -6 36 -29 54 -38 29 -1 -5 -16 -12 -33 -14
-16 -2 -38 -7 -48 -11 -18 -8 -87 22 -87 38 0 4 10 11 23 16 19 7 16 9 -15 9
-38 0 -58 7 -58 21 0 4 21 6 48 4 60 -5 87 13 73 50 -6 14 -23 29 -40 35 -17
6 -31 14 -31 17 0 3 4 4 9 0 5 -3 13 -1 16 5 4 6 19 10 33 8 38 -4 42 14 7 31
-18 9 -25 16 -17 19 8 2 19 -1 25 -7 14 -14 40 -15 32 -1 -3 6 3 10 14 10 30
0 44 -35 38 -92 -7 -56 8 -56 18 0 6 38 44 79 41 45 -2 -33 22 -23 28 12 8 41
-3 70 -15 39 -7 -17 -8 -16 -9 6 -2 23 -3 22 -11 -7 -10 -36 -39 -45 -39 -13
0 29 -34 42 -88 34 -46 -6 -56 2 -12 11 31 6 31 6 13 42 -18 39 -44 49 -75 29
-13 -8 -41 -17 -63 -19 -60 -8 -75 -17 -75 -43 0 -12 -8 -27 -17 -33 -17 -9
-17 -10 0 -16 9 -4 17 -13 17 -21 0 -8 5 -14 11 -14 5 0 7 -4 4 -10 -3 -5 -23
-10 -43 -10 -29 0 -38 4 -39 18 -1 9 -3 36 -4 59 -3 35 -8 44 -31 54 -15 6
-35 9 -43 5 -9 -3 -37 -1 -63 5 -35 8 -52 7 -70 -3 -25 -13 -47 -53 -43 -76 1
-8 -5 -22 -15 -33 -9 -10 -16 -30 -16 -44 0 -27 -16 -29 -29 -4 -12 23 -22 53
-21 62 1 4 -7 16 -19 28 -11 11 -18 27 -15 36 3 8 6 21 6 29 0 8 7 14 15 14
21 0 19 17 -3 24 -9 3 -23 16 -31 28 -12 19 -11 23 5 35 17 12 17 15 2 29 -8
9 -18 12 -21 7z m606 -200 c-7 -2 -19 -2 -25 0 -7 3 -2 5 12 5 14 0 19 -2 13
-5z m-315 -24 c-15 -10 -115 -12 -105 -3 3 4 21 8 38 10 18 2 34 6 36 8 2 2
13 1 24 -1 16 -5 18 -8 7 -14z m-128 -62 c0 -8 10 -22 22 -33 18 -16 20 -16
15 -2 -8 22 9 26 61 16 50 -11 48 -23 -7 -32 -48 -7 -54 -15 -38 -49 16 -33
60 -42 98 -20 15 9 32 13 36 9 4 -5 -1 -13 -11 -20 -11 -6 -37 -27 -59 -46
-35 -31 -45 -34 -99 -35 -36 0 -64 5 -70 12 -6 7 -14 10 -19 7 -5 -3 -9 8 -9
25 0 16 -3 36 -6 44 -3 8 3 22 12 32 17 16 17 18 1 30 -16 12 -16 13 3 18 13
3 20 0 20 -9 0 -21 29 -88 36 -81 3 3 -2 26 -10 52 -17 50 -12 95 10 95 8 0
14 -6 14 -13z m305 -7 c11 -5 14 -9 8 -9 -24 -2 -13 -33 22 -64 24 -21 33 -37
30 -48 -4 -11 1 -22 13 -28 11 -6 22 -19 25 -30 5 -20 -8 -49 -18 -40 -3 4
-30 0 -61 -7 -30 -7 -77 -10 -104 -8 -28 3 -50 1 -50 -4 0 -8 90 -95 112 -108
10 -6 68 24 68 35 0 5 13 22 28 39 l28 30 23 -33 c18 -27 20 -37 11 -54 -10
-21 -22 -25 -90 -35 -110 -16 -227 -13 -212 5 4 5 -6 38 -19 61 -13 25 -12 32
14 60 24 28 57 84 57 99 0 5 14 28 31 51 20 29 28 50 25 64 -8 31 19 41 59 24z
m-130 -10 c-3 -5 -11 -10 -16 -10 -6 0 -7 5 -4 10 3 6 11 10 16 10 6 0 7 -4 4
-10z m195 -38 c0 -33 -16 -18 -26 23 -7 27 -6 29 9 16 10 -7 17 -25 17 -39z
m-169 -13 l-10 -24 0 26 c-1 14 2 29 6 33 12 12 14 -9 4 -35z m342 -279 c-3
-12 -8 -19 -11 -16 -5 6 5 36 12 36 2 0 2 -9 -1 -20z m44 -52 c-3 -8 -6 -5 -6
6 -1 11 2 17 5 13 3 -3 4 -12 1 -19z m-147 -9 c0 -12 -5 -19 -12 -16 -7 2 -24
-4 -38 -14 -45 -31 -94 -34 -161 -9 -72 27 -72 36 0 14 64 -19 116 -12 162 22
40 29 49 30 49 3z m-255 -33 c19 -8 35 -20 35 -27 0 -9 -3 -9 -14 0 -10 8 -16
8 -25 -3 -8 -10 -9 -16 -1 -21 6 -3 8 -10 6 -14 -10 -16 14 -34 55 -41 79 -15
189 11 189 44 0 8 6 17 13 19 9 4 9 8 -2 15 -7 5 -10 15 -7 21 10 16 26 14 26
-4 0 -7 7 -18 16 -23 19 -10 13 -54 -9 -72 -89 -73 -106 -80 -191 -80 -51 0
-71 5 -102 26 -50 34 -82 67 -94 100 -15 40 -8 38 34 -7 43 -45 53 -46 32 -3
-8 16 -18 41 -21 57 -8 32 6 35 60 13z m379 -20 c-3 -9 -10 -16 -15 -16 -6 0
-5 9 1 21 13 24 24 20 14 -5z m-598 -68 c-24 -115 -26 -146 -11 -253 23 -165
34 -230 62 -348 l25 -107 -53 -58 c-66 -72 -124 -162 -211 -329 -39 -73 -71
-133 -72 -133 -7 0 6 165 18 232 8 46 20 126 26 178 7 52 29 174 50 270 22 96
47 227 56 290 16 111 41 186 85 257 26 42 33 42 25 1z m184 -198 c0 -5 -4 -10
-10 -10 -5 0 -10 5 -10 10 0 6 5 10 10 10 6 0 10 -4 10 -10z m28 -32 c-6 -18
-28 -21 -28 -4 0 9 7 16 16 16 9 0 14 -5 12 -12z m98 -57 c-4 -5 -1 -11 5 -13
18 -6 -1 -36 -28 -43 -34 -8 -62 17 -44 39 7 8 25 17 39 19 15 2 28 5 30 6 2
0 1 -3 -2 -8z m74 -61 c0 -12 -69 -90 -80 -90 -4 0 -12 12 -19 27 -15 33 -5
44 52 59 23 6 43 12 45 13 1 0 2 -3 2 -9z m-122 -1494 c2 -10 0 -22 -5 -27
-13 -13 -225 -20 -240 -7 -7 6 -22 8 -33 5 -13 -3 -24 1 -31 14 -15 29 12 35
169 34 125 0 137 -2 140 -19z m-880 2 c-6 -18 -59 -29 -75 -16 -10 8 -13 6
-13 -8 0 -14 -3 -15 -12 -6 -9 9 -8 15 8 27 23 18 97 20 92 3z m381 -18 c20
-5 62 -12 94 -15 31 -4 57 -10 57 -15 0 -5 -13 -18 -29 -29 -26 -19 -34 -19
-92 -10 -83 13 -109 24 -109 47 0 34 17 39 79 22z"/>
<path d="M1080 2520 c-12 -8 -12 -10 2 -15 21 -8 48 -3 51 9 3 13 -35 17 -53
6z"/>
<path d="M1268 2943 c6 -2 18 -2 25 0 6 3 1 5 -13 5 -14 0 -19 -2 -12 -5z"/>
<path d="M1721 2838 c-8 -15 -10 -35 -6 -45 6 -16 8 -15 16 7 6 13 8 33 6 45
-3 18 -4 18 -16 -7z"/>
<path d="M1691 2834 c0 -11 3 -14 6 -6 3 7 2 16 -1 19 -3 4 -6 -2 -5 -13z"/>
<path d="M813 2775 c-7 -19 2 -103 11 -113 9 -8 26 18 25 38 -2 28 1 32 16 20
26 -22 18 23 -8 48 -28 26 -36 27 -44 7z"/>
<path d="M1538 2563 c7 -3 16 -2 19 1 4 3 -2 6 -13 5 -11 0 -14 -3 -6 -6z"/>
<path d="M184 714 c-18 -14 -18 -14 6 -3 31 14 36 19 24 19 -6 0 -19 -7 -30
-16z"/>
<path d="M1000 610 c-25 -6 -25 -6 7 -17 45 -16 219 -37 240 -28 16 6 14 9
-12 23 -23 12 -50 16 -114 13 -46 -2 -86 1 -90 6 -3 5 -17 7 -31 3z"/>
<path d="M705 560 c-19 -7 -18 -8 8 -20 17 -9 27 -21 27 -35 0 -17 8 -24 31
-29 18 -3 37 -2 44 4 6 5 14 8 16 5 3 -2 27 2 54 9 l50 13 -28 12 c-16 6 -37
11 -48 11 -26 0 -111 21 -124 30 -5 4 -19 4 -30 0z"/>
<path d="M995 509 c22 -4 49 -8 60 -8 17 -1 17 1 5 9 -8 5 -35 9 -60 9 l-45
-1 40 -9z"/>
<path d="M700 465 c7 -8 17 -15 22 -15 5 0 3 7 -6 15 -8 8 -18 15 -22 15 -3 0
-1 -7 6 -15z"/>
<path d="M1758 433 c-9 -2 -19 -11 -22 -19 -5 -12 -2 -12 18 1 19 13 29 13 52
4 l29 -12 -33 -7 c-18 -4 -42 -16 -53 -26 -12 -11 -23 -17 -24 -14 -2 3 -7 1
-12 -4 -5 -6 -2 -6 6 -1 11 6 13 4 8 -8 -4 -10 0 -20 11 -26 16 -10 16 -10 -1
-11 -36 0 -10 -25 30 -28 50 -3 73 20 80 82 8 65 -21 87 -89 69z"/>
<path d="M1438 383 c6 -2 18 -2 25 0 6 3 1 5 -13 5 -14 0 -19 -2 -12 -5z"/>
</g>
</svg>
